<svg enable-background="new 0 0 59.066 59.066" version="1.1" viewBox="0 0 59.066 59.066" xml:space="preserve" xmlns="http://www.w3.org/2000/svg" class="icon" >
<path d="m52.844 27.116c-0.432-0.72-1.155-1.116-2.039-1.116h-0.012c-1.667 6e-3 -3.673 0.667-5.235 1.724-1.441 0.975-3.53 2.782-5.293 5.863-0.331 0.578-0.874 0.97-1.455 1.063-2e-3 -0.134-1e-3 -0.287-1e-3 -0.432 0-0.309 1e-3 -0.677-0.012-1.083v-22.135c0-2.206-1.794-4-4-4s-4 1.794-4 4v15.5c0 0.275-0.225 0.5-0.5 0.5s-0.5-0.225-0.5-0.5v-22.5c0-2.206-1.794-4-4-4s-4 1.794-4 4v22.5c0 0.275-0.225 0.5-0.5 0.5s-0.5-0.225-0.5-0.5v-18c0-1.93-1.57-3.5-3.5-3.5s-3.5 1.57-3.5 3.5v20c0 0.275-0.225 0.5-0.5 0.5s-0.5-0.225-0.5-0.5v-12.5c0-1.93-1.57-3.5-3.51-3.5-1.93 0-3.5 1.57-3.5 3.5l2e-3 27.197c0.968 13.983 9.545 15.869 17.808 15.869 6.846 0 12.995-3.396 16.027-8.824 0.39-0.63 1.445-2.289 2.696-4.254 3.128-4.914 5.748-9.041 6.135-9.775 0.863-1.634 1.826-2.911 2.784-3.693 0.867-0.708 1.397-1.611 1.828-2.404 0.223-0.413 0.417-1.93-0.223-3zm-1.588 2.143c-0.4 0.729-0.777 1.3-1.282 1.712-1.18 0.964-2.285 2.413-3.287 4.309-0.381 0.723-3.794 6.086-6.053 9.635-1.258 1.976-2.318 3.642-2.733 4.314-2.701 4.834-8.182 7.838-14.304 7.838-10.542 0-15.123-4.059-15.81-13.938v-27.129c0-0.827 0.673-1.5 1.51-1.5 0.827 0 1.5 0.673 1.5 1.5v12.5c0 1.379 1.121 2.5 2.5 2.5s2.5-1.121 2.5-2.5v-20c0-0.827 0.673-1.5 1.5-1.5s1.5 0.673 1.5 1.5v18c0 1.379 1.121 2.5 2.5 2.5s2.5-1.121 2.5-2.5v-22.5c0-1.103 0.897-2 2-2s2 0.897 2 2v22.5c0 1.379 1.121 2.5 2.5 2.5s2.5-1.121 2.5-2.5v-15.5c0-1.103 0.897-2 2-2s2 0.897 2 2v22.166c0.013 0.411 0.012 0.758 0.012 1.05-2e-3 0.895-3e-3 1.541 0.49 2.024 0.413 0.403 0.948 0.428 1.326 0.432 1.361-0.031 2.655-0.833 3.376-2.092 1.571-2.748 3.41-4.344 4.677-5.199 1.232-0.834 2.851-1.376 4.123-1.381h4e-3c0.214 0 0.263 0.063 0.292 0.1 0.197 0.25 0.206 0.879 0.159 1.159z"/>
</svg>