<svg enable-background="new 0 0 512.002 512.002" version="1.1" viewBox="0 0 512 512" xml:space="preserve" xmlns="http://www.w3.org/2000/svg" class="icon">
		<path d="m512 255.97c-0.011-5.193-2.708-10.011-7.129-12.737l-52.034-32.076 52.089-32.421c4.393-2.734 7.066-7.539 7.074-12.712 8e-3 -5.174-2.651-9.987-7.036-12.734l-241-151c-4.871-3.052-11.058-3.052-15.929 0l-241 151c-4.384 2.747-7.043 7.56-7.036 12.734 8e-3 5.174 2.681 9.979 7.074 12.712l51.732 32.198-51.755 32.349c-4.39 2.744-7.055 7.557-7.05 12.734s2.679 9.985 7.074 12.721l51.732 32.198-51.756 32.347c-4.383 2.74-7.047 7.543-7.05 12.712s2.656 9.975 7.036 12.719l241 151c2.436 1.526 5.2 2.289 7.964 2.289s5.529-0.763 7.964-2.289l241-151c4.394-2.753 7.055-7.581 7.036-12.766s-2.715-9.993-7.129-12.714l-52.034-32.076 52.089-32.421c4.409-2.744 7.085-7.574 7.074-12.767zm-468.68-90.009 212.68-133.26 212.68 133.26c-2.044 1.272-206.59 128.58-212.68 132.37l-212.68-132.37zm425.26 180.15-212.58 133.2-212.72-133.28 43.889-27.431 160.91 100.15c2.426 1.51 5.176 2.265 7.926 2.265s5.5-0.755 7.926-2.265l160.46-99.874 44.193 27.243zm-212.58 42.228-212.66-132.36 43.822-27.389 160.91 100.15c2.426 1.51 5.176 2.265 7.926 2.265s5.5-0.755 7.926-2.265l160.46-99.874 44.125 27.2c-1.219 0.759-206.88 128.77-212.52 132.27z"/>
</svg>